<svg xmlns="http://www.w3.org/2000/svg" width="15" height="15" viewBox="0 0 15 15">
  <g id="date-icon" transform="translate(-216.931 -138.274)">
    <rect id="Rectangle_164" data-name="Rectangle 164" width="15" height="15" transform="translate(216.931 138.274)" fill="none"/>
    <g id="Group_160" data-name="Group 160" transform="translate(217.695 139.009)">
      <path id="Path_200" data-name="Path 200" d="M225.206,139.771a6.75,6.75,0,1,0,6.75,6.75A6.758,6.758,0,0,0,225.206,139.771Zm0,12.5a5.748,5.748,0,1,1,5.748-5.748A5.755,5.755,0,0,1,225.206,152.269Z" transform="translate(-218.456 -139.771)" fill="#888a8c"/>
      <path id="Path_201" data-name="Path 201" d="M231.933,149.187v-3.633a.5.5,0,1,0-1,0v3.706a.517.517,0,0,0,.015.074.5.5,0,0,0,.178.493l2.923,2.278a.5.5,0,1,0,.616-.79Z" transform="translate(-224.682 -142.407)" fill="#888a8c"/>
    </g>
  </g>
</svg>
