<svg xmlns="http://www.w3.org/2000/svg" width="20" height="20" viewBox="0 0 20 20">
  <g id="flash-messages-icon-grey" transform="translate(-320.853 -62.217)">
    <rect id="Rectangle_31" data-name="Rectangle 31" width="20" height="20" transform="translate(320.853 62.217)" fill="none"/>
    <g id="Group_16" data-name="Group 16" transform="translate(321.974 65.904)">
      <path id="Path_17" data-name="Path 17" d="M334.334,67.379h-1.374a1.03,1.03,0,0,0-1.029,1.029v.1l-6.339,1.936a.716.716,0,0,0-.506.684v3.584a.719.719,0,0,0,.029.2l1.346,4.582a.714.714,0,0,0,.861.491l1.919-.487a.714.714,0,0,0,.524-.836l-.418-2.043,2.584.844a1.031,1.031,0,0,0,1.029,1.026h1.374a1.031,1.031,0,0,0,1.029-1.029v-9.05A1.03,1.03,0,0,0,334.334,67.379Zm-7.82,4.279L331.93,70v5.955l-5.416-1.768Zm1.714,6.622-.591.15-.77-2.621.916.3Zm5.706-1.221h-.576V68.808h.576Z" transform="translate(-323.184 -67.379)" fill="#7c7e80"/>
      <path id="Path_18" data-name="Path 18" d="M323.137,71.067a.715.715,0,0,0-.714.714v4.5a.714.714,0,1,0,1.429,0v-4.5A.714.714,0,0,0,323.137,71.067Z" transform="translate(-322.423 -68.433)" fill="#7c7e80"/>
      <path id="Path_19" data-name="Path 19" d="M341.867,72.358a.711.711,0,0,0,.3-.068l2.434-1.146A.714.714,0,1,0,344,69.853L341.563,71a.714.714,0,0,0,.3,1.361Z" transform="translate(-327.774 -68.066)" fill="#7c7e80"/>
      <path id="Path_20" data-name="Path 20" d="M344.606,78.463l-2.434-1.146a.714.714,0,1,0-.609,1.292L344,79.756a.714.714,0,1,0,.609-1.292Z" transform="translate(-327.774 -70.199)" fill="#7c7e80"/>
      <path id="Path_21" data-name="Path 21" d="M345.2,74.235H343.19a.714.714,0,1,0,0,1.429H345.2a.714.714,0,0,0,0-1.429Z" transform="translate(-328.152 -69.338)" fill="#7c7e80"/>
    </g>
  </g>
</svg>
