<svg xmlns="http://www.w3.org/2000/svg" width="25" height="25" viewBox="0 0 25 25">
  <g id="redemption-icon" transform="translate(-337.632 -137.126)">
    <g id="Group_164" data-name="Group 164" transform="translate(339.386 138.992)">
      <path id="Path_205" data-name="Path 205" d="M360.16,150.819a2.375,2.375,0,0,0-.66-.287l-.067-.019a2.693,2.693,0,0,1-.533-.2.5.5,0,0,1-.074-.05.347.347,0,0,1-.132-.277.34.34,0,0,1,.145-.28.3.3,0,0,1,.061-.038.884.884,0,0,1,.6-.038.446.446,0,0,1,.17.093.725.725,0,0,1,.189.453l.667-.035a1.253,1.253,0,0,0-.346-.9,1.142,1.142,0,0,0-.68-.3v-.46h-.6v.483a1.049,1.049,0,0,0-.28.1.975.975,0,0,0-.413.4,1.167,1.167,0,0,0-.151.592,1.214,1.214,0,0,0,.118.529,1.05,1.05,0,0,0,.315.4,1.531,1.531,0,0,0,.411.208c.065.025.137.048.211.071.16.051.288.09.388.126a1.68,1.68,0,0,1,.211.082.462.462,0,0,1,.184.157.437.437,0,0,1,.061.235.507.507,0,0,1-.174.391.555.555,0,0,1-.281.137.832.832,0,0,1-.193.021.656.656,0,0,1-.407-.122.944.944,0,0,1-.313-.651l-.651.078q.114,1.143.964,1.341v.556h.6v-.525a1.161,1.161,0,0,0,.8-.348,1.27,1.27,0,0,0,.322-.882,1.446,1.446,0,0,0-.118-.617A1.047,1.047,0,0,0,360.16,150.819Z" transform="translate(-342.988 -140.919)" fill="#fff"/>
      <path id="Path_206" data-name="Path 206" d="M347.353,155.857V153.2a.751.751,0,0,0,0-.718v-2.657a.822.822,0,0,0-.823-.823h-.69a.95.95,0,0,0-.267-.6.968.968,0,0,0-1.37,0l-.455.452a.9.9,0,0,0-.095.146h-.239a.859.859,0,0,0-.1-.146l-.452-.452a.972.972,0,0,0-1.373,0,.953.953,0,0,0-.266.6h-.554a.823.823,0,0,0-.823.823v2.66a.762.762,0,0,0,0,.711v2.663a.822.822,0,0,0,.823.823h5.855A.822.822,0,0,0,347.353,155.857Zm-5.855-5.211h1.282v1.37H341.5Zm2.928,0h1.282v1.37h-1.282Zm-2.928,3.016h1.282v1.373H341.5Zm4.21,1.373h-1.282v-1.373h1.282Z" transform="translate(-339.764 -140.855)" fill="#fff"/>
      <path id="Path_207" data-name="Path 207" d="M345.268,144.837a.821.821,0,0,0,.6-.256,7.656,7.656,0,0,1,7.2-2.008l-.406.123a.823.823,0,0,0,.238,1.611.8.8,0,0,0,.239-.036l2.572-.779h0l.021-.006c.025-.008.044-.028.068-.038a.812.812,0,0,0,.212-.118.9.9,0,0,0,.09-.1.871.871,0,0,0,.105-.121c.007-.012.006-.025.012-.037s.016-.017.022-.029a.808.808,0,0,0,.024-.109.779.779,0,0,0,.041-.186.833.833,0,0,0-.01-.135.818.818,0,0,0-.039-.189c-.007-.018,0-.039-.012-.057l-1.147-2.586a.823.823,0,0,0-1.5.667l.289.65c-5.316-1.681-9.17,2.311-9.212,2.357a.822.822,0,0,0,.6,1.385Z" transform="translate(-340.594 -139.288)" fill="#fff"/>
      <path id="Path_208" data-name="Path 208" d="M356.446,159.045a7.656,7.656,0,0,1-7.2,2.008l.4-.123a.822.822,0,0,0-.476-1.574l-2.594.786a.657.657,0,0,0-.078.043.793.793,0,0,0-.2.112.81.81,0,0,0-.092.105.855.855,0,0,0-.1.119c-.007.012-.006.025-.012.036s-.016.018-.022.029a.818.818,0,0,0-.024.109.786.786,0,0,0-.041.186.836.836,0,0,0,.01.136.814.814,0,0,0,.039.188c.007.019,0,.039.012.057l1.147,2.586a.823.823,0,1,0,1.5-.667l-.288-.649a8.688,8.688,0,0,0,2.623.417,9.894,9.894,0,0,0,6.588-2.775.823.823,0,0,0-1.2-1.129Z" transform="translate(-340.871 -142.748)" fill="#fff"/>
      <path id="Path_209" data-name="Path 209" d="M358.515,145.662a4.88,4.88,0,1,0,4.881,4.881A4.886,4.886,0,0,0,358.515,145.662Zm0,8.115a3.235,3.235,0,1,1,3.235-3.234A3.238,3.238,0,0,1,358.515,153.777Z" transform="translate(-342.224 -140.419)" fill="#fff"/>
    </g>
    <rect id="Rectangle_166" data-name="Rectangle 166" width="25" height="25" transform="translate(337.632 137.126)" fill="none"/>
  </g>
</svg>
