<svg xmlns="http://www.w3.org/2000/svg" width="60" height="60" viewBox="0 0 60 60">
  <g id="upload-icon" transform="translate(-112.637 -270.119)">
    <rect id="Rectangle_242" data-name="Rectangle 242" width="60" height="60" transform="translate(112.637 270.119)" fill="none"/>
    <g id="Group_287" data-name="Group 287">
      <path id="Path_307" data-name="Path 307" d="M160.7,291.356c-2.076-7.579-9.579-12.978-18.252-12.978-9.9,0-18.031,7-18.762,15.878a10.453,10.453,0,0,0-8.263,10.178v.931a10.413,10.413,0,0,0,10.4,10.4h7.756a1.5,1.5,0,0,0,0-3h-7.756a7.411,7.411,0,0,1-7.4-7.4v-.931a7.429,7.429,0,0,1,6.824-7.377,1.528,1.528,0,0,0,1.385-1.525c0-7.8,7.1-14.154,15.816-14.154,7.633,0,14.175,4.872,15.553,11.585a1.5,1.5,0,0,0,1.281,1.186c4.315.547,7.569,4.533,7.569,9.273a9.947,9.947,0,0,1-.085,1.294c-.579,4.59-4.231,8.051-8.5,8.051h-7.112a1.5,1.5,0,0,0,0,3h7.112c5.772,0,10.7-4.59,11.471-10.669a13.09,13.09,0,0,0,.109-1.676A12.182,12.182,0,0,0,160.7,291.356Z" fill="#52c2fb"/>
      <path id="Path_308" data-name="Path 308" d="M150.641,305.275l-6.918-7.259-.012-.011a1.715,1.715,0,0,0-.159-.135c-.022-.018-.043-.039-.066-.055a1.562,1.562,0,0,0-.223-.124c-.012-.005-.023-.013-.035-.019a1.506,1.506,0,0,0-.486-.111c-.033,0-.066-.01-.1-.01h-.005a1.485,1.485,0,0,0-.844.261c-.022.015-.041.034-.062.051a1.433,1.433,0,0,0-.163.138l-.01.008-7,7.261a1.5,1.5,0,1,0,2.159,2.082l4.424-4.586V320.36a1.5,1.5,0,0,0,3,0V302.8l4.332,4.547a1.5,1.5,0,0,0,2.172-2.071Z" fill="#52c2fb"/>
    </g>
  </g>
</svg>
